<?xml version="1.0" encoding="UTF-8" standalone="no"?>
<svg
   xmlns:dc="http://purl.org/dc/elements/1.1/"
   xmlns:cc="http://creativecommons.org/ns#"
   xmlns:rdf="http://www.w3.org/1999/02/22-rdf-syntax-ns#"
   xmlns:svg="http://www.w3.org/2000/svg"
   xmlns="http://www.w3.org/2000/svg"
   xmlns:sodipodi="http://sodipodi.sourceforge.net/DTD/sodipodi-0.dtd"
   xmlns:inkscape="http://www.inkscape.org/namespaces/inkscape"
   height="936.96002"
   width="936.96002"
   id="svg2"
   version="1.1"
   inkscape:version="0.48.5 r10040"
   sodipodi:docname="github.svg">
  <metadata
     id="metadata10">
    <rdf:RDF>
      <cc:Work
         rdf:about="">
        <dc:format>image/svg+xml</dc:format>
        <dc:type
           rdf:resource="http://purl.org/dc/dcmitype/StillImage" />
      </cc:Work>
    </rdf:RDF>
  </metadata>
  <defs
     id="defs8" />
  <sodipodi:namedview
     pagecolor="#ffffff"
     bordercolor="#666666"
     borderopacity="1"
     objecttolerance="10"
     gridtolerance="10"
     guidetolerance="10"
     inkscape:pageopacity="0"
     inkscape:pageshadow="2"
     inkscape:window-width="1920"
     inkscape:window-height="1018"
     id="namedview6"
     showgrid="false"
     inkscape:zoom="0.472"
     inkscape:cx="413.73534"
     inkscape:cy="449.01028"
     inkscape:window-x="1912"
     inkscape:window-y="-8"
     inkscape:window-maximized="1"
     inkscape:current-layer="svg2"
     fit-margin-top="0"
     fit-margin-left="0"
     fit-margin-right="0"
     fit-margin-bottom="0" />
  <path
     d="m 0,468.48 q 0,129.32 62.952,234.728 62.952,108.824 170.8,171.288 107.848,62.464 234.728,62.464 127.368,0 235.704,-62.464 Q 812.52,811.544 874.74,703.452 936.96,595.36 936.96,468.48 936.96,339.648 874.496,232.776 811.544,124.44 703.452,62.22 595.36,0 468.48,0 339.16,0 233.752,62.952 124.928,125.904 62.464,233.752 0,341.6 0,468.48 z m 78.08,0 q 0,-78.08 30.744,-150.792 30.744,-72.712 83.936,-125.416 53.192,-53.192 125.416,-83.692 72.224,-30.5 150.304,-30.5 78.08,0 150.792,30.5 72.712,30.5 125.904,83.692 52.704,52.704 83.204,125.416 30.5,72.712 30.5,150.792 0,83.936 -34.404,160.064 -34.404,76.128 -96.624,131.516 -62.22,55.388 -142.252,80.276 V 702.72 q 0,-51.24 -41.968,-80.032 102.968,-9.272 150.548,-52.216 47.58,-42.944 47.58,-136.152 0,-72.224 -44.408,-121.512 8.784,-26.352 8.784,-50.752 0,-36.112 -16.592,-66.368 -32.696,0 -58.56,10.736 -25.864,10.736 -63.44,37.088 -45.384,-10.248 -93.696,-10.248 -55.144,0 -102.968,11.224 -36.6,-26.84 -63.196,-37.82 -26.596,-10.98 -60.268,-10.98 -16.104,30.744 -16.104,66.368 0,25.376 8.296,51.24 Q 195.2,361.12 195.2,434.32 q 0,93.208 47.336,135.664 47.336,42.456 151.768,52.216 -27.816,18.544 -38.552,54.168 -23.912,8.296 -49.776,8.296 -19.52,0 -33.672,-8.784 -4.392,-2.44 -8.052,-5.124 -3.66,-2.684 -7.564,-6.588 -3.904,-3.904 -6.344,-6.1 -2.44,-2.196 -6.344,-7.564 -3.904,-5.368 -5.124,-6.832 -1.22,-1.464 -5.856,-7.808 -4.636,-6.344 -5.124,-6.832 -22.936,-30.256 -54.656,-30.256 -17.08,0 -17.08,7.32 0,2.928 8.296,9.76 15.616,13.664 16.592,14.64 11.712,9.272 13.176,11.712 14.152,17.568 21.472,38.552 27.328,61 93.696,61 10.736,0 41.968,-4.88 V 840.336 Q 271.328,815.448 209.108,760.06 146.888,704.672 112.484,628.544 78.08,552.416 78.08,468.48 z"
     id="path4"
     style="fill:#ffffff;fill-opacity:1"
     inkscape:connector-curvature="0" />
</svg>
